<svg aria-hidden="true" style="position: absolute; width: 0; height: 0; overflow: hidden;" version="1.1" xmlns="http://www.w3.org/2000/svg" xmlns:xlink="http://www.w3.org/1999/xlink">
<defs>
<symbol id="sun" viewBox="0 0 32 32">
<path d="M16 9c-3.859 0-7 3.141-7 7s3.141 7 7 7 7-3.141 7-7c0-3.859-3.141-7-7-7zM16 7c0.552 0 1-0.447 1-1v-2c0-0.552-0.448-1-1-1-0.553 0-1 0.448-1 1v2c0 0.553 0.447 1 1 1zM16 25c-0.553 0-1 0.448-1 1v2c0 0.553 0.447 1 1 1 0.552 0 1-0.447 1-1v-2c0-0.552-0.448-1-1-1zM23.776 9.635l1.414-1.414c0.391-0.391 0.391-1.023 0-1.414s-1.023-0.391-1.414 0l-1.414 1.414c-0.391 0.391-0.391 1.023 0 1.414s1.023 0.391 1.414 0zM8.221 22.366l-1.414 1.414c-0.391 0.391-0.391 1.023 0 1.414s1.023 0.391 1.414 0l1.414-1.414c0.391-0.393 0.391-1.023 0-1.414s-1.023-0.393-1.414 0zM7 16c0-0.552-0.448-1-1-1h-2c-0.553 0-1 0.448-1 1 0 0.553 0.447 1 1 1h2c0.552 0 1-0.447 1-1zM28 15h-2c-0.553 0-1 0.448-1 1 0 0.553 0.447 1 1 1h2c0.552 0 1-0.447 1-1 0-0.552-0.448-1-1-1zM8.22 9.635c0.391 0.391 1.023 0.391 1.414 0s0.391-1.023 0-1.414l-1.414-1.414c-0.391-0.391-1.024-0.391-1.414 0s-0.391 1.023 0 1.414l1.414 1.414zM23.779 22.363c-0.393-0.391-1.023-0.391-1.414 0s-0.393 1.023 0 1.414l1.414 1.414c0.391 0.391 1.023 0.391 1.414 0s0.391-1.023 0-1.414l-1.414-1.414z"></path>
</symbol>
<symbol id="cloudy" viewBox="0 0 32 32">
<path d="M13 4c0.552 0 1-0.448 1-1v-2c0-0.552-0.448-1-1-1s-1 0.448-1 1v2c0 0.552 0.448 1 1 1zM20.777 6.635l1.414-1.414c0.391-0.391 0.391-1.023 0-1.414s-1.023-0.391-1.414 0l-1.414 1.414c-0.391 0.391-0.391 1.023 0 1.414s1.023 0.391 1.414 0zM1 14h2c0.552 0 1-0.448 1-1s-0.448-1-1-1h-2c-0.552 0-1 0.448-1 1s0.448 1 1 1zM22 13c0 0.552 0.448 1 1 1h2c0.552 0 1-0.448 1-1s-0.448-1-1-1h-2c-0.552 0-1 0.448-1 1zM5.221 6.635c0.391 0.391 1.024 0.391 1.414 0s0.391-1.023 0-1.414l-1.414-1.414c-0.391-0.391-1.023-0.391-1.414 0s-0.391 1.023 0 1.414l1.414 1.414zM25 16c-0.332 0-0.66 0.023-0.987 0.070-1.048-1.43-2.445-2.521-4.029-3.219-0.081-3.789-3.176-6.852-6.984-6.852-3.859 0-7 3.141-7 7 0 1.090 0.271 2.109 0.719 3.027-3.727 0.152-6.719 3.211-6.719 6.973 0 3.859 3.141 7 7 7 0.856 0 1.693-0.156 2.482-0.458 1.81 1.578 4.112 2.458 6.518 2.458 2.409 0 4.708-0.88 6.518-2.458 0.789 0.302 1.626 0.458 2.482 0.458 3.859 0 7-3.141 7-7s-3.141-7-7-7zM16 12c-2.871 0-5.531 1.238-7.398 3.328-0.371-0.698-0.602-1.482-0.602-2.328 0-2.762 2.238-5 5-5 2.488 0 4.535 1.823 4.919 4.203-0.626-0.125-1.266-0.203-1.919-0.203z"></path>
</symbol>
<symbol id="cloud" viewBox="0 0 32 32">
<path d="M25 10c-0.332 0-0.66 0.023-0.987 0.070-1.867-2.544-4.814-4.070-8.013-4.070s-6.145 1.526-8.013 4.070c-0.327-0.047-0.655-0.070-0.987-0.070-3.859 0-7 3.141-7 7s3.141 7 7 7c0.856 0 1.693-0.156 2.482-0.458 1.81 1.578 4.112 2.458 6.518 2.458 2.409 0 4.708-0.88 6.518-2.458 0.789 0.302 1.626 0.458 2.482 0.458 3.859 0 7-3.141 7-7s-3.141-7-7-7z"></path>
</symbol>
<symbol id="lightning" viewBox="0 0 32 32">
<path d="M25 4c-0.332 0-0.66 0.023-0.987 0.070-1.867-2.544-4.814-4.070-8.013-4.070s-6.145 1.526-8.013 4.070c-0.327-0.047-0.655-0.070-0.987-0.070-3.859 0-7 3.141-7 7s3.141 7 7 7c0.856 0 1.693-0.156 2.482-0.458 1.346 1.173 2.963 1.956 4.694 2.283l-2.176 2.176 2 2-2 6 6-6-2-2 0.688-2.062c2.154-0.152 4.195-0.971 5.831-2.396 0.789 0.302 1.626 0.458 2.482 0.458 3.859 0 7-3.141 7-7s-3.141-7-7-7z"></path>
</symbol>
<symbol id="rainy" viewBox="0 0 32 32">
<path d="M25 4c-0.332 0-0.66 0.023-0.987 0.070-1.867-2.544-4.814-4.070-8.013-4.070s-6.145 1.526-8.013 4.070c-0.327-0.047-0.655-0.070-0.987-0.070-3.859 0-7 3.141-7 7s3.141 7 7 7c0.856 0 1.693-0.156 2.482-0.458 1.81 1.578 4.112 2.458 6.518 2.458 2.409 0 4.708-0.88 6.518-2.458 0.789 0.302 1.626 0.458 2.482 0.458 3.859 0 7-3.141 7-7s-3.141-7-7-7zM14.063 30c0 1.105 0.895 2 2 2s2-0.895 2-2-2-4-2-4-2 2.895-2 4zM22 28c0 1.105 0.895 2 2 2s2-0.895 2-2-2-4-2-4-2 2.895-2 4zM6 24c0 1.105 0.894 2 2 2s2-0.895 2-2-2-4-2-4-2 2.895-2 4z"></path>
</symbol>
<symbol id="snowy" viewBox="0 0 32 32">
<path d="M20.378 27.73l-1.125-0.648c0.034-0.195 0.060-0.394 0.060-0.602s-0.026-0.406-0.063-0.602l1.128-0.65c0.526-0.307 0.706-0.983 0.404-1.506-0.305-0.53-0.979-0.711-1.508-0.406l-1.137 0.656c-0.305-0.259-0.648-0.462-1.031-0.6v-1.306c0-0.611-0.496-1.105-1.105-1.105s-1.104 0.495-1.104 1.105v1.305c-0.383 0.137-0.728 0.342-1.033 0.602l-1.134-0.656c-0.53-0.305-1.206-0.125-1.51 0.405-0.305 0.526-0.121 1.203 0.406 1.508l1.122 0.648c-0.037 0.197-0.060 0.396-0.060 0.603s0.023 0.406 0.060 0.602l-1.122 0.648c-0.529 0.305-0.711 0.984-0.406 1.512s0.98 0.707 1.508 0.402l1.135-0.652c0.305 0.258 0.65 0.461 1.034 0.598v1.309c0 0.609 0.495 1.102 1.104 1.102s1.105-0.492 1.105-1.102v-1.309c0.383-0.137 0.73-0.34 1.033-0.602l1.135 0.656c0.529 0.305 1.203 0.125 1.508-0.402s0.125-1.203-0.404-1.512zM16 27.586c-0.609 0-1.105-0.496-1.105-1.105s0.496-1.103 1.105-1.103 1.104 0.494 1.104 1.103-0.495 1.105-1.104 1.105zM29.635 24.766l-0.755-0.201c-0.018-0.24-0.076-0.467-0.181-0.686l0.548-0.548c0.258-0.258 0.256-0.674 0-0.928-0.255-0.256-0.669-0.258-0.927 0l-0.549 0.547c-0.216-0.102-0.447-0.16-0.685-0.18l-0.201-0.754c-0.094-0.349-0.453-0.559-0.805-0.465-0.35 0.095-0.555 0.454-0.464 0.805l0.201 0.744c-0.099 0.068-0.193 0.143-0.281 0.229-0.086 0.089-0.159 0.182-0.227 0.279l-0.744-0.201c-0.35-0.094-0.712 0.117-0.806 0.465-0.094 0.352 0.117 0.71 0.464 0.805l0.75 0.202c0.021 0.236 0.081 0.466 0.186 0.685l-0.551 0.551c-0.255 0.256-0.254 0.671 0.003 0.926 0.255 0.255 0.669 0.258 0.924 0.003l0.552-0.552c0.216 0.107 0.448 0.167 0.688 0.185l0.198 0.751c0.096 0.35 0.453 0.559 0.805 0.465 0.349-0.094 0.56-0.453 0.466-0.807l-0.201-0.744c0.094-0.066 0.19-0.141 0.279-0.227 0.086-0.087 0.159-0.184 0.227-0.28l0.745 0.201c0.35 0.094 0.711-0.116 0.803-0.464 0.094-0.349-0.113-0.708-0.462-0.805zM27.395 25.184c-0.258 0.258-0.673 0.256-0.93 0-0.254-0.254-0.256-0.671 0-0.928 0.256-0.255 0.673-0.255 0.93 0 0.254 0.256 0.254 0.674 0 0.928zM7.434 21.406l-0.742 0.199c-0.069-0.094-0.141-0.189-0.228-0.277-0.088-0.086-0.182-0.16-0.28-0.227l0.199-0.746c0.094-0.35-0.115-0.711-0.461-0.803-0.352-0.094-0.711 0.115-0.805 0.464l-0.203 0.754c-0.238 0.020-0.466 0.078-0.684 0.181l-0.551-0.548c-0.258-0.258-0.672-0.256-0.927 0-0.256 0.256-0.256 0.672 0 0.928l0.548 0.548c-0.103 0.219-0.163 0.449-0.181 0.686l-0.753 0.201c-0.352 0.096-0.56 0.453-0.466 0.805 0.095 0.349 0.454 0.555 0.806 0.464l0.742-0.202c0.066 0.1 0.141 0.194 0.231 0.281 0.086 0.086 0.18 0.163 0.277 0.227l-0.199 0.744c-0.094 0.352 0.115 0.714 0.463 0.807 0.352 0.094 0.708-0.115 0.802-0.465l0.203-0.75c0.238-0.020 0.469-0.079 0.688-0.184l0.549 0.549c0.255 0.258 0.669 0.253 0.927-0.003 0.254-0.254 0.258-0.669 0-0.926l-0.551-0.551c0.106-0.216 0.168-0.449 0.184-0.688l0.754-0.199c0.348-0.095 0.556-0.453 0.462-0.805-0.094-0.348-0.453-0.556-0.806-0.465zM5.535 23.185c-0.256 0.256-0.672 0.256-0.93 0-0.254-0.255-0.254-0.673 0-0.927 0.258-0.255 0.673-0.255 0.93 0s0.254 0.672 0 0.927zM32 11c0-3.859-3.141-7-7-7-0.332 0-0.66 0.023-0.987 0.070-1.867-2.544-4.814-4.070-8.013-4.070s-6.145 1.526-8.013 4.070c-0.327-0.047-0.655-0.070-0.987-0.070-3.859 0-7 3.141-7 7s3.141 7 7 7c0.856 0 1.693-0.156 2.482-0.458 1.81 1.578 4.112 2.458 6.518 2.458 2.409 0 4.708-0.88 6.518-2.458 0.789 0.302 1.626 0.458 2.482 0.458 3.859 0 7-3.141 7-7z"></path>
</symbol>
<symbol id="celsius" viewBox="0 0 32 32">
<path d="M13.073 11.023c-0.225-0.212-0.487-0.38-0.784-0.504-0.301-0.121-0.621-0.184-0.961-0.184-0.341 0-0.662 0.063-0.961 0.184-0.297 0.124-0.559 0.292-0.784 0.504-0.224 0.214-0.4 0.464-0.529 0.753-0.128 0.288-0.191 0.592-0.191 0.911 0 0.32 0.064 0.625 0.191 0.913 0.129 0.288 0.305 0.539 0.529 0.751 0.225 0.214 0.487 0.383 0.784 0.504 0.299 0.124 0.62 0.185 0.961 0.185 0.34 0 0.66-0.061 0.961-0.185 0.297-0.121 0.559-0.29 0.784-0.504 0.224-0.212 0.4-0.464 0.526-0.751 0.128-0.288 0.194-0.592 0.194-0.913 0-0.319-0.066-0.624-0.194-0.911-0.126-0.289-0.302-0.539-0.526-0.753zM12.113 13.44c-0.215 0.214-0.477 0.32-0.785 0.32s-0.57-0.107-0.785-0.32c-0.212-0.214-0.32-0.464-0.32-0.753 0-0.297 0.108-0.552 0.32-0.759 0.215-0.208 0.477-0.311 0.785-0.311s0.57 0.103 0.785 0.311c0.211 0.207 0.319 0.462 0.319 0.759 0 0.289-0.108 0.539-0.319 0.753zM20.953 19.487c-0.379 0.108-0.755 0.161-1.129 0.161-0.246 0-0.488-0.038-0.728-0.112-0.241-0.076-0.46-0.193-0.656-0.353-0.198-0.16-0.358-0.365-0.479-0.616-0.122-0.25-0.185-0.557-0.185-0.919v-3.216c0-0.362 0.062-0.672 0.185-0.928 0.121-0.255 0.279-0.464 0.471-0.624s0.409-0.275 0.656-0.344c0.245-0.069 0.49-0.104 0.736-0.104 0.374 0 0.758 0.055 1.152 0.168 0.395 0.112 0.762 0.312 1.104 0.6l1.056-1.697c-0.428-0.372-0.936-0.645-1.53-0.816-0.591-0.169-1.206-0.255-1.846-0.255-0.522 0-1.036 0.075-1.536 0.224-0.501 0.15-0.947 0.374-1.336 0.672-0.388 0.3-0.704 0.669-0.943 1.112-0.242 0.443-0.362 0.958-0.362 1.544v4.128c0 0.598 0.124 1.117 0.37 1.56 0.245 0.443 0.565 0.811 0.958 1.104 0.396 0.294 0.842 0.514 1.344 0.664 0.503 0.148 1.014 0.224 1.538 0.224 0.65 0 1.267-0.096 1.855-0.288 0.586-0.193 1.082-0.46 1.488-0.799l-1.040-1.697c-0.383 0.299-0.766 0.501-1.143 0.607z"></path>
</symbol>
<symbol id="close" viewBox="0 0 32 32">
<path d="M32 3.224l-3.224-3.224-12.776 12.776-12.776-12.776-3.224 3.224 12.776 12.776-12.776 12.776 3.224 3.224 12.776-12.776 12.776 12.776 3.224-3.224-12.776-12.776z"></path>
</symbol>
</defs>
</svg>
